<?xml version="1.0" encoding="UTF-8" standalone="no"?>
<!-- Created with Inkscape (http://www.inkscape.org/) -->

<svg
   width="210mm"
   height="297mm"
   viewBox="0 0 210 297"
   version="1.1"
   id="svg5"
   inkscape:version="1.1.1 (3bf5ae0d25, 2021-09-20)"
   sodipodi:docname="рисунок.svg"
   xmlns:inkscape="http://www.inkscape.org/namespaces/inkscape"
   xmlns:sodipodi="http://sodipodi.sourceforge.net/DTD/sodipodi-0.dtd"
   xmlns="http://www.w3.org/2000/svg">
  <sodipodi:namedview
     id="namedview7"
     pagecolor="#ffffff"
     bordercolor="#666666"
     borderopacity="1.0"
     inkscape:pageshadow="2"
     inkscape:pageopacity="0.0"
     inkscape:pagecheckerboard="0"
     inkscape:document-units="mm"
     showgrid="true"
     inkscape:zoom="8.8258707"
     inkscape:cx="165.98929"
     inkscape:cy="141.45913"
     inkscape:window-width="1920"
     inkscape:window-height="1137"
     inkscape:window-x="1912"
     inkscape:window-y="-8"
     inkscape:window-maximized="1"
     inkscape:current-layer="layer1"
     inkscape:snap-grids="true"
     inkscape:lockguides="false"
     inkscape:snap-smooth-nodes="false"
     inkscape:snap-bbox="true"
     inkscape:snap-global="true"
     inkscape:bbox-paths="true"
     inkscape:bbox-nodes="true"
     inkscape:snap-bbox-edge-midpoints="true"
     inkscape:snap-bbox-midpoints="false"
     inkscape:snap-intersection-paths="true"
     inkscape:object-paths="true"
     inkscape:snap-midpoints="true"
     inkscape:snap-object-midpoints="true"
     inkscape:object-nodes="true">
    <inkscape:grid
       type="xygrid"
       id="grid19796"
       enabled="false"
       visible="false" />
    <inkscape:grid
       type="axonomgrid"
       id="grid35508"
       spacingy="0.25"
       snapvisiblegridlinesonly="true" />
  </sodipodi:namedview>
  <defs
     id="defs2">
    <inkscape:path-effect
       effect="spiro"
       id="path-effect48759"
       is_visible="true"
       lpeversion="1" />
    <inkscape:path-effect
       effect="spiro"
       id="path-effect48755"
       is_visible="true"
       lpeversion="1" />
    <inkscape:path-effect
       effect="spiro"
       id="path-effect48751"
       is_visible="true"
       lpeversion="1" />
    <inkscape:path-effect
       effect="spiro"
       id="path-effect48264"
       is_visible="true"
       lpeversion="1" />
    <inkscape:path-effect
       effect="spiro"
       id="path-effect48260"
       is_visible="true"
       lpeversion="1" />
    <inkscape:path-effect
       effect="spiro"
       id="path-effect48256"
       is_visible="true"
       lpeversion="1" />
    <inkscape:path-effect
       effect="spiro"
       id="path-effect45282"
       is_visible="true"
       lpeversion="1" />
    <inkscape:path-effect
       effect="spiro"
       id="path-effect44542"
       is_visible="true"
       lpeversion="1" />
    <inkscape:path-effect
       effect="spiro"
       id="path-effect39701"
       is_visible="true"
       lpeversion="1" />
    <inkscape:path-effect
       effect="spiro"
       id="path-effect32942"
       is_visible="true"
       lpeversion="1" />
    <inkscape:path-effect
       effect="spiro"
       id="path-effect27595"
       is_visible="true"
       lpeversion="1" />
    <inkscape:path-effect
       effect="spiro"
       id="path-effect24998"
       is_visible="true"
       lpeversion="1" />
    <inkscape:path-effect
       effect="spiro"
       id="path-effect24994"
       is_visible="true"
       lpeversion="1" />
    <inkscape:path-effect
       effect="spiro"
       id="path-effect24955"
       is_visible="true"
       lpeversion="1" />
    <inkscape:path-effect
       effect="spiro"
       id="path-effect20148"
       is_visible="true"
       lpeversion="1" />
    <inkscape:path-effect
       effect="spiro"
       id="path-effect19714"
       is_visible="true"
       lpeversion="1" />
    <inkscape:path-effect
       effect="spiro"
       id="path-effect19575"
       is_visible="true"
       lpeversion="1" />
    <inkscape:path-effect
       effect="spiro"
       id="path-effect19571"
       is_visible="true"
       lpeversion="1" />
    <inkscape:path-effect
       effect="spiro"
       id="path-effect19567"
       is_visible="true"
       lpeversion="1" />
    <inkscape:path-effect
       effect="spiro"
       id="path-effect45601"
       is_visible="true"
       lpeversion="1" />
    <inkscape:path-effect
       effect="spiro"
       id="path-effect48859"
       is_visible="true"
       lpeversion="1" />
    <inkscape:path-effect
       effect="spiro"
       id="path-effect48888"
       is_visible="true"
       lpeversion="1" />
  </defs>
  <g
     inkscape:groupmode="layer"
     id="layer2"
     inkscape:label="Слой 2" />
  <g
     inkscape:label="Слой 1"
     inkscape:groupmode="layer"
     id="layer1">
    <path
       style="fill:none;stroke:#000000;stroke-width:0.61;stroke-linecap:round;stroke-linejoin:miter;stroke-miterlimit:4;stroke-dasharray:none;stroke-opacity:1"
       d="m 49.67146,46.683013 c 0.07557,-0.04363 0.13938,-0.107438 0.183013,-0.183013 0.04363,-0.07558 0.06699,-0.162733 0.06699,-0.25 0,-0.08727 -0.02335,-0.174425 -0.06699,-0.25 -0.04363,-0.07558 -0.107438,-0.13938 -0.183013,-0.183013"
       id="path20146-8-4"
       inkscape:path-effect="#path-effect39701"
       inkscape:original-d="m 49.67146,46.683013 c 0,0 0.249997,-0.266347 0.250001,-0.433013 0,-0.166661 -0.25,-0.433013 -0.25,-0.433013"
       sodipodi:nodetypes="cac" />
    <path
       style="fill:none;stroke:#000000;stroke-width:0.61;stroke-linecap:round;stroke-linejoin:miter;stroke-miterlimit:4;stroke-dasharray:none;stroke-opacity:1"
       d="m 50.271,47.549039 c 0.226725,-0.1309 0.418138,-0.322313 0.549038,-0.549038 0.1309,-0.226725 0.200962,-0.488201 0.200962,-0.75 0,-0.261799 -0.07006,-0.523275 -0.200962,-0.75 -0.1309,-0.226725 -0.322313,-0.418138 -0.549038,-0.549038"
       id="path20146-8-4-1"
       inkscape:path-effect="#path-effect44542"
       inkscape:original-d="m 50.271,47.549039 c 0,0 0.734923,-1.115124 0.75,-1.299038 0.01508,-0.183916 -0.75,-1.299038 -0.75,-1.299038"
       sodipodi:nodetypes="czc" />
    <path
       style="fill:none;stroke:#000000;stroke-width:0.61;stroke-linecap:round;stroke-linejoin:miter;stroke-miterlimit:4;stroke-dasharray:none;stroke-opacity:1"
       d="m 50.871,48.415064 c 0.377875,-0.218166 0.696898,-0.537189 0.915064,-0.915064 0.218166,-0.377875 0.334937,-0.813668 0.334937,-1.25 0,-0.436332 -0.11677,-0.872125 -0.334936,-1.25 -0.218167,-0.377875 -0.537189,-0.696898 -0.915064,-0.915064"
       id="path20146-8-4-1-0"
       inkscape:path-effect="#path-effect45282"
       inkscape:original-d="m 50.871,48.415064 c 0,0 1.234923,-1.981149 1.250001,-2.165064 0.01508,-0.183913 -1.25,-2.165064 -1.25,-2.165064"
       sodipodi:nodetypes="czc" />
    <g
       aria-label="SMS"
       id="text3597-3-81"
       style="font-size:10.5833px;font-family:Fraulein;-inkscape-font-specification:Fraulein;stroke-width:0.264583"
       transform="translate(-18.874158,-7.9018219)">
      <path
         d="m 58.843158,54.787302 c 0,0.61667 0.31178,0.925005 0.935341,0.925005 h 1.165136 c 0.21015,0 0.313502,0.103353 0.310057,0.310058 0,0.206705 -0.10163,0.31178 -0.30489,0.315225 h -1.795586 c -0.206706,0.0035 -0.310058,0.106819 -0.310058,0.310058 0,0.20326 0.103352,0.30489 0.310058,0.30489 h 1.800754 c 0.62356,0 0.933618,-0.310058 0.930173,-0.930173 0,-0.620115 -0.31178,-0.930173 -0.935341,-0.930173 h -1.170303 c -0.210151,0 -0.316949,-0.10163 -0.320393,-0.30489 0,-0.20326 0.106797,-0.310058 0.320393,-0.320393 l 1.790418,0.0052 c 0.199815,-0.0035 0.299723,-0.106819 0.299723,-0.310058 0.0035,-0.20326 -0.09644,-0.30489 -0.299723,-0.30489 l -1.790418,0.0052 c -0.623561,0 -0.935341,0.308335 -0.935341,0.925005 z"
         id="path18713-8-9"
         sodipodi:nodetypes="csscccssscsscccccccc" />
      <path
         d="m 65.15187,54.151684 c -0.0035,-0.106798 -0.05687,-0.192925 -0.160197,-0.258382 -0.09991,-0.06545 -0.218763,-0.06029 -0.356566,0.0155 l -0.958816,1.116208 -0.974428,-1.116208 c -0.124024,-0.06546 -0.237711,-0.05857 -0.341063,0.02067 -0.103353,0.07579 -0.155029,0.151584 -0.155029,0.227375 v 2.485629 c -0.0035,0.206705 0.09816,0.310058 0.30489,0.310058 0.206704,0 0.311779,-0.103353 0.315225,-0.310058 v -1.912022 l 0.545515,0.842323 c 0.113688,0.09991 0.213595,0.149861 0.299722,0.149861 0.08957,-0.0035 0.194648,-0.05514 0.315226,-0.155028 l 0.545406,-0.842324 0.0052,1.922358 c 0,0.199815 0.10163,0.299722 0.30489,0.299722 0.206705,0 0.310058,-0.09991 0.310058,-0.299722 z"
         id="path18715-9-4"
         sodipodi:nodetypes="ccccccscscccccccscc" />
      <path
         d="m 65.479182,54.787302 c 0,0.61667 0.31178,0.925005 0.93534,0.925005 h 1.165053 c 0.21015,0 0.313503,0.103353 0.310058,0.310058 0,0.206705 -0.10163,0.31178 -0.30489,0.315225 h -1.795504 c -0.206705,0.0035 -0.310057,0.106819 -0.310057,0.310058 0,0.20326 0.103352,0.30489 0.310057,0.30489 h 1.800671 c 0.623561,0 0.933618,-0.310058 0.930173,-0.930173 0,-0.620115 -0.31178,-0.930173 -0.93534,-0.930173 h -1.170221 c -0.21015,0 -0.316948,-0.10163 -0.320393,-0.30489 0,-0.20326 0.106798,-0.310058 0.320393,-0.320393 l 1.290775,0.0052 c 0.199815,-0.0035 0.299722,-0.106819 0.299722,-0.310058 0.0035,-0.20326 -0.09644,-0.30489 -0.299722,-0.30489 l -1.290775,0.0052 c -0.62356,0 -0.93534,0.308335 -0.93534,0.925005 z"
         id="path18717-9-6"
         sodipodi:nodetypes="csscccssscsscccccccc" />
    </g>
    <path
       style="fill:none;stroke:#000000;stroke-width:0.61;stroke-linecap:round;stroke-linejoin:miter;stroke-miterlimit:4;stroke-dasharray:none;stroke-opacity:1"
       d="m 45.774346,36.683012 c 0.07558,-0.04363 0.13938,-0.107438 0.183013,-0.183013 0.04363,-0.07558 0.06699,-0.162733 0.06699,-0.25 0,-0.08727 -0.02335,-0.174425 -0.06699,-0.25 -0.04363,-0.07558 -0.107438,-0.13938 -0.183013,-0.183013"
       id="path20146-8-4-5"
       inkscape:path-effect="#path-effect48256"
       inkscape:original-d="m 45.774346,36.683012 c 0,0 0.249997,-0.266347 0.250001,-0.433013 0,-0.166661 -0.25,-0.433013 -0.25,-0.433013"
       sodipodi:nodetypes="cac" />
    <path
       style="fill:none;stroke:#000000;stroke-width:0.61;stroke-linecap:round;stroke-linejoin:miter;stroke-miterlimit:4;stroke-dasharray:none;stroke-opacity:1"
       d="m 46.373886,37.549038 c 0.226725,-0.1309 0.418138,-0.322313 0.549038,-0.549038 0.1309,-0.226725 0.200962,-0.488201 0.200962,-0.75 0,-0.261799 -0.07006,-0.523275 -0.200962,-0.75 -0.1309,-0.226725 -0.322313,-0.418138 -0.549038,-0.549038"
       id="path20146-8-4-1-3"
       inkscape:path-effect="#path-effect48260"
       inkscape:original-d="m 46.373886,37.549038 c 0,0 0.734923,-1.115124 0.75,-1.299038 0.01508,-0.183916 -0.75,-1.299038 -0.75,-1.299038"
       sodipodi:nodetypes="czc" />
    <path
       style="fill:none;stroke:#000000;stroke-width:0.61;stroke-linecap:round;stroke-linejoin:miter;stroke-miterlimit:4;stroke-dasharray:none;stroke-opacity:1"
       d="m 46.973886,38.415063 c 0.377875,-0.218166 0.696898,-0.537189 0.915064,-0.915064 0.218166,-0.377875 0.334937,-0.813668 0.334937,-1.25 0,-0.436332 -0.11677,-0.872125 -0.334936,-1.25 -0.218167,-0.377875 -0.537189,-0.696898 -0.915064,-0.915064"
       id="path20146-8-4-1-0-8"
       inkscape:path-effect="#path-effect48264"
       inkscape:original-d="m 46.973886,38.415063 c 0,0 1.234923,-1.981149 1.250001,-2.165064 0.01508,-0.183913 -1.25,-2.165064 -1.25,-2.165064"
       sodipodi:nodetypes="czc" />
    <g
       aria-label="SMS"
       id="text3597-3-81-2"
       style="font-size:10.5833px;font-family:Fraulein;-inkscape-font-specification:Fraulein;stroke-width:0.264583"
       transform="translate(-22.771271,-17.901823)">
      <path
         d="m 65.479182,54.787302 c 0,0.61667 0.31178,0.925005 0.93534,0.925005 h 1.165053 c 0.21015,0 0.313503,0.103353 0.310058,0.310058 0,0.206705 -0.10163,0.31178 -0.30489,0.315225 h -1.795504 c -0.206705,0.0035 -0.310057,0.106819 -0.310057,0.310058 0,0.20326 0.103352,0.30489 0.310057,0.30489 h 1.800671 c 0.623561,0 0.933618,-0.310058 0.930173,-0.930173 0,-0.620115 -0.31178,-0.930173 -0.93534,-0.930173 h -1.170221 c -0.21015,0 -0.316948,-0.10163 -0.320393,-0.30489 0,-0.20326 0.106798,-0.310058 0.320393,-0.320393 l 1.290775,0.0052 c 0.199815,-0.0035 0.299722,-0.106819 0.299722,-0.310058 0.0035,-0.20326 -0.09644,-0.30489 -0.299722,-0.30489 l -1.290775,0.0052 c -0.62356,0 -0.93534,0.308335 -0.93534,0.925005 z"
         id="path18717-9-6-5"
         sodipodi:nodetypes="csscccssscsscccccccc" />
    </g>
    <path
       style="fill:none;stroke:#000000;stroke-width:0.61;stroke-linecap:round;stroke-linejoin:miter;stroke-miterlimit:4;stroke-dasharray:none;stroke-opacity:1"
       d="m 40.220854,27.808011 c 0.07558,-0.04363 0.13938,-0.107438 0.183013,-0.183013 0.04363,-0.07558 0.06699,-0.162733 0.06699,-0.25 0,-0.08727 -0.02335,-0.174425 -0.06699,-0.25 -0.04363,-0.07558 -0.107438,-0.13938 -0.183013,-0.183013"
       id="path20146-8-4-5-8"
       inkscape:path-effect="#path-effect48751"
       inkscape:original-d="m 40.220854,27.808011 c 0,0 0.249997,-0.266347 0.250001,-0.433013 0,-0.166661 -0.25,-0.433013 -0.25,-0.433013"
       sodipodi:nodetypes="cac" />
    <path
       style="fill:none;stroke:#000000;stroke-width:0.61;stroke-linecap:round;stroke-linejoin:miter;stroke-miterlimit:4;stroke-dasharray:none;stroke-opacity:1"
       d="m 40.820394,28.674037 c 0.226725,-0.1309 0.418138,-0.322313 0.549038,-0.549038 0.1309,-0.226725 0.200962,-0.488201 0.200962,-0.75 0,-0.261799 -0.07006,-0.523275 -0.200962,-0.75 -0.1309,-0.226725 -0.322313,-0.418138 -0.549038,-0.549038"
       id="path20146-8-4-1-3-2"
       inkscape:path-effect="#path-effect48755"
       inkscape:original-d="m 40.820394,28.674037 c 0,0 0.734923,-1.115124 0.75,-1.299038 0.01508,-0.183916 -0.75,-1.299038 -0.75,-1.299038"
       sodipodi:nodetypes="czc" />
    <g
       aria-label="SMS"
       id="text3597-3-81-2-7"
       style="font-size:10.5833px;font-family:Fraulein;-inkscape-font-specification:Fraulein;stroke-width:0.264583"
       transform="translate(-28.324763,-26.776824)">
      <path
         d="m 65.479182,54.787302 c 0,0.61667 0.31178,0.925005 0.93534,0.925005 h 1.165053 c 0.21015,0 0.313503,0.103353 0.310058,0.310058 0,0.206705 -0.10163,0.31178 -0.30489,0.315225 h -1.795504 c -0.206705,0.0035 -0.310057,0.106819 -0.310057,0.310058 0,0.20326 0.103352,0.30489 0.310057,0.30489 h 1.800671 c 0.623561,0 0.933618,-0.310058 0.930173,-0.930173 0,-0.620115 -0.31178,-0.930173 -0.93534,-0.930173 h -1.170221 c -0.21015,0 -0.316948,-0.10163 -0.320393,-0.30489 0,-0.20326 0.106798,-0.310058 0.320393,-0.320393 l 1.290775,0.0052 c 0.199815,-0.0035 0.299722,-0.106819 0.299722,-0.310058 0.0035,-0.20326 -0.09644,-0.30489 -0.299722,-0.30489 l -1.290775,0.0052 c -0.62356,0 -0.93534,0.308335 -0.93534,0.925005 z"
         id="path18717-9-6-5-4"
         sodipodi:nodetypes="csscccssscsscccccccc" />
    </g>
  </g>
</svg>
